<?xml version="1.0" encoding="iso-8859-1"?>
<!-- Generator: Adobe Illustrator 15.0.0, SVG Export Plug-In . SVG Version: 6.00 Build 0)  -->
<!DOCTYPE svg PUBLIC "-//W3C//DTD SVG 1.1//EN" "http://www.w3.org/Graphics/SVG/1.1/DTD/svg11.dtd">
<svg version="1.1" id="&#xB808;&#xC774;&#xC5B4;_1" xmlns="http://www.w3.org/2000/svg" xmlns:xlink="http://www.w3.org/1999/xlink"
	 x="0px" y="0px" width="200px" height="150px" viewBox="0 0 200 150" style="enable-background:new 0 0 200 150;"
	 xml:space="preserve">
<g>
	<path style="fill:#005BAC;" d="M100.178,42.506c55.022,0,99.907,14.591,99.907,32.52c0,17.805-44.885,32.396-99.907,32.396
		c-55.146,0-100.031-14.591-100.031-32.396C0.147,57.097,45.031,42.506,100.178,42.506z"/>
	<path style="fill:#FFFFFF;" d="M21.91,55.365h20.649v4.452H27.103v8.531h15.456V72.8H27.103v5.687c0,1.979,0.371,3.217,1.113,4.082
		c0.865,0.741,2.226,1.111,4.08,1.111h10.263v4.575H31.306c-2.968,0-5.193-0.742-6.924-2.226c-1.607-1.606-2.473-3.957-2.473-7.295
		V55.365L21.91,55.365z M55.047,88.256c-2.968,0-5.193-0.742-6.43-2.226c-1.36-1.483-1.978-3.709-1.978-6.8V65.134h5.07v13.849
		c0,1.482,0.247,2.721,0.741,3.462s1.484,1.111,2.968,1.111H61.6V65.134h5.07v23.122H55.047L55.047,88.256z M82.744,65.134
		c2.72,0,4.575,0.865,5.811,2.473c1.237,1.607,1.855,3.956,1.855,6.923v13.725H85.34V74.408c0-1.36-0.124-2.473-0.495-3.338
		c-0.372-0.742-1.237-1.237-2.473-1.237h-6.554v18.423H70.75V65.134H82.744L82.744,65.134z M94.119,88.256v-5.069h9.396
		c0.865,0,1.73-0.124,2.597-0.248c0.865-0.123,1.608-0.369,2.227-0.741c0.617-0.371,1.112-0.741,1.606-1.36
		c0.373-0.495,0.495-1.236,0.495-1.978c0-0.619-0.122-1.113-0.495-1.608c-0.37-0.494-0.865-0.988-1.482-1.36
		c-0.618-0.371-1.361-0.741-2.227-0.989c-0.865-0.247-1.731-0.495-2.597-0.742c-1.235-0.247-2.35-0.619-3.585-1.112
		c-1.113-0.372-2.225-0.99-3.215-1.732c-0.865-0.741-1.73-1.607-2.35-2.72c-0.618-0.988-0.865-2.349-0.865-3.956
		c0-1.855,0.371-3.339,1.113-4.575c0.742-1.237,1.731-2.226,2.844-2.844c1.236-0.741,2.596-1.236,4.08-1.483
		c1.608-0.247,3.217-0.372,4.823-0.372h8.16v5.07h-7.914c-2.596,0-4.45,0.248-5.811,0.99c-1.237,0.618-1.855,1.73-1.855,3.215
		c0,0.618,0.124,1.236,0.495,1.731c0.371,0.495,0.865,0.989,1.36,1.36c0.618,0.371,1.36,0.742,2.226,0.989
		c0.865,0.371,1.732,0.618,2.72,0.742c1.236,0.371,2.474,0.742,3.71,1.237c1.236,0.371,2.35,0.989,3.339,1.607
		c0.865,0.742,1.606,1.484,2.224,2.473c0.621,1.113,0.867,2.227,0.867,3.709c0,1.854-0.37,3.463-1.112,4.699
		c-0.62,1.237-1.607,2.226-2.72,2.968c-1.113,0.742-2.476,1.236-3.958,1.607c-1.484,0.248-3.091,0.494-4.575,0.494H94.119
		L94.119,88.256z M127.629,88.256c-2.969,0-5.195-0.742-6.43-2.226c-1.362-1.483-1.979-3.709-1.979-6.8V65.134h5.068v13.849
		c0,1.482,0.248,2.721,0.743,3.462c0.494,0.741,1.608,1.111,3.091,1.111h6.059V65.134h5.07v23.122H127.629L127.629,88.256z
		 M155.324,65.134c2.72,0,4.699,0.865,5.937,2.473c1.234,1.607,1.854,3.956,1.854,6.923v13.725h-5.07V74.408
		c0-1.36-0.246-2.473-0.617-3.338c-0.372-0.742-1.113-1.237-2.474-1.237h-6.552v18.423h-5.072V65.134H155.324L155.324,65.134z
		 M178.199,92.212c1.36,0,2.35-0.617,2.969-1.73c0.617-1.235,0.989-2.72,0.989-4.699V69.708h-5.813
		c-1.731,0-3.091,0.495-4.081,1.607c-1.111,1.114-1.608,2.474-1.608,4.205c0,0.742,0.125,1.484,0.373,2.102
		c0.246,0.741,0.617,1.237,1.113,1.73c0.493,0.372,0.987,0.743,1.606,0.989c0.493,0.248,1.236,0.373,1.855,0.373h4.08
		c0.37,0,0.618,0.122,0.865,0.368c0.122,0.248,0.122,0.497-0.124,0.867l-2.35,3.462h-2.348c-1.362,0-2.599-0.247-3.834-0.619
		c-1.113-0.369-2.226-0.989-3.093-1.854c-0.987-0.741-1.73-1.855-2.224-3.09c-0.496-1.237-0.743-2.72-0.743-4.328
		c0-3.339,0.867-5.812,2.598-7.666c1.731-1.855,4.327-2.72,7.913-2.72h10.881v20.402c0,1.73-0.124,3.215-0.371,4.575
		c-0.246,1.359-0.743,2.596-1.36,3.708c-0.741,0.989-1.484,1.854-2.596,2.351c-0.989,0.617-2.35,0.865-3.958,0.865h-8.285
		l-1.854-2.968c-0.246-0.495-0.493-0.989-0.493-1.36c-0.124-0.37,0.247-0.495,0.865-0.495H178.199z"/>
</g>
</svg>
