<?xml version="1.0" encoding="UTF-8"?>
<svg id="_레이어_1" data-name="레이어 1" xmlns="http://www.w3.org/2000/svg" viewBox="0 0 1018.2 534.33">
  <defs>
    <style>
      .cls-1 {
        fill: #4f5c98;
      }

      .cls-2 {
        fill: #fcc62e;
      }

      .cls-3 {
        fill: #9ad2fa;
      }

      .cls-4 {
        fill: #4d4d4d;
      }

      .cls-5, .cls-6 {
        fill: #fff;
      }

      .cls-7 {
        fill: #70c0f8;
      }

      .cls-8 {
        font-size: 162.92px;
      }

      .cls-8, .cls-9, .cls-10, .cls-11 {
        stroke-miterlimit: 10;
      }

      .cls-8, .cls-9, .cls-11 {
        fill: #f6f6f6;
        stroke: #f6f6f6;
      }

      .cls-8, .cls-11 {
        font-family: Pretendard-Bold-KSCpc-EUC-H, Pretendard;
        font-weight: 700;
      }

      .cls-12 {
        fill: #3d4a74;
      }

      .cls-13 {
        letter-spacing: -.03em;
      }

      .cls-14 {
        fill: #666;
      }

      .cls-15 {
        letter-spacing: -.04em;
      }

      .cls-16 {
        fill: #c1272d;
      }

      .cls-17 {
        fill: #4f5d98;
      }

      .cls-18 {
        fill: #1a1a1a;
      }

      .cls-6 {
        font-family: Pretendard-Regular-KSCpc-EUC-H, Pretendard;
        font-size: 34.27px;
      }

      .cls-19 {
        fill: #999;
      }

      .cls-20 {
        fill: #fcee21;
      }

      .cls-9 {
        font-family: Pretendard-Medium-KSCpc-EUC-H, Pretendard;
        font-size: 92.13px;
        font-weight: 500;
      }

      .cls-21 {
        fill: #3c4974;
      }

      .cls-10 {
        stroke: #666;
      }

      .cls-10, .cls-22 {
        fill: #f8ab00;
      }

      .cls-23 {
        fill: #ec524e;
      }

      .cls-24 {
        fill: gray;
      }

      .cls-25 {
        fill: #ed1c24;
      }

      .cls-11 {
        font-size: 219.47px;
      }

      .cls-26 {
        fill: #3d4974;
      }
    </style>
  </defs>
  <path class="cls-22" d="M294.49,37.35c-8.52-1.63-17.04-3.22-25.55-4.89-4.87-.96-6.5-3.32-5.57-8.24.72-3.77,1.07-7.63,2.54-11.25,3.68-9.06,12.19-14.02,21.8-12.37,8.82,1.51,17.61,3.19,26.37,5.03,10.74,2.26,17.24,11.84,15.62,22.71-.43,2.86-.99,5.7-1.61,8.52-1.01,4.61-3.37,6.21-8.04,5.35-8.53-1.57-17.04-3.24-25.56-4.86Z"/>
  <path class="cls-22" d="M106.01,37.27c-8.35,1.77-16.7,3.56-25.05,5.29-5.34,1.11-7.65-.38-8.78-5.83-.78-3.76-1.94-7.45-1.92-11.37.06-9.34,5.93-17.17,14.98-19.28,8.98-2.1,18.01-4,27.07-5.73,9.14-1.74,17.73,3.02,21.51,11.53,1.87,4.21,2.47,8.74,3.22,13.2.61,3.63-1.42,5.89-5.57,6.79-8.48,1.84-16.97,3.6-25.45,5.4Z"/>
  <path class="cls-2" d="M365.71,95.97c-.05-1.24-.13-2.48-.13-3.71-.02-3.58-.34-7.21.05-10.75,1.54-13.65-5.38-22.47-16.21-29.18-12.69-7.86-26.72-12.24-41.08-15.65-33.02-7.83-66.61-10.58-100.45-10.88-42.28-.38-84.29,2.09-125.33,13.34-12.91,3.54-25.44,8.1-36.3,16.29-7.83,5.91-12.51,13.29-11.84,23.59.37,5.62-.02,11.29-.07,16.94-1.44,1.8-1.52,3.6,0,5.39.05,1.65.13,3.3.13,4.95,0,30.15,0,60.31,0,90.46h0v105h331v-42.78c.03-1,.07-2,.07-3,0-44.11,0-88.21.01-132.32,0-7.44.08-14.88.13-22.32,1.52-1.8,1.44-3.6,0-5.39Z"/>
  <path class="cls-17" d="M34.44,301.74c1.43.74,2.98.39,4.47.39,107.42.02,214.83.02,322.25,0,1.49,0,3.04.35,4.47-.39,8.04.49,10.05,2.61,10.07,10.65.01,5.89.07,11.78-.04,17.67-.1,5.05-2.28,7.27-7.44,7.97-.55.06.16.09-.39.13-22.2,1.52-44.42,2.01-66.66,1.6-1.81-.03-3.58-.15-5.11-1.28-6.46-.56-12.88.57-19.29.59-51.13.15-102.25.07-153.38.1-4.12,0-8.12-1.41-12.27-.85-17.23,2.31-34.56,1.55-51.84,1.36-9.13-.1-18.23-1.72-27.41-1.65-5.16-.69-7.35-2.92-7.44-7.96-.11-5.89-.05-11.78-.04-17.68.02-8.06,2.01-10.15,10.07-10.64Z"/>
  <path class="cls-17" d="M349.95,382.77c-1.28,5.88-4.67,8.99-10.48,9.06-10.86.13-21.73.14-32.6,0-6.4-.08-10.76-4.3-10.83-10.56-.12-11.41.02-22.83.06-34.24,1.21-1.64,2.99-1.82,4.81-1.83,14.73-.12,29.45-.16,44.18.02,4.65.06,5.21.73,5.15,5.39-.14,10.72.4,21.45-.28,32.16Z"/>
  <path class="cls-17" d="M103.97,347.03c.03,11.41.17,22.82.06,34.23-.06,6.12-4.3,10.44-10.41,10.54-11.14.17-22.28.15-33.42,0-5.47-.07-8.84-3.32-10.08-9.03-.66-11.4-.14-22.82-.27-34.23-.02-2.01,1.21-2.95,3.08-3.19,1.64-.21,3.3-.21,4.95-.22,13.21,0,26.43-.05,39.64.03,2.29.01,4.77-.35,6.46,1.86Z"/>
  <path class="cls-1" d="M279.61,347.96c-3.93,7.93-10.54,12.1-19.17,12.14-40.27.17-80.53.17-120.8,0-8.64-.04-15.23-4.23-19.18-12.13.05-2.02,1.52-2.42,3.08-2.63,1.78-.24,3.58-.2,5.37-.2,47.42-.01,94.83-.01,142.25,0,1.79,0,3.59-.04,5.37.2,1.56.21,3.04.6,3.08,2.63Z"/>
  <path class="cls-23" d="M21.14,118.24c4.01.57,5.54,3.1,5.53,6.91-.02,16.78.04,33.57-.03,50.35-.02,5.16-1.89,6.91-7.01,6.97-4.26.05-8.53.08-12.79-.02-4.06-.1-6.19-2.07-6.21-6.09-.08-17.33-.06-34.67-.01-52,0-3.79,2.2-5.74,5.87-6.16,1.75-.07,3.51.26,5.17-.78,1.59-.99,3.09-.2,4.63.49,1.52.69,3.24.15,4.86.33Z"/>
  <path class="cls-23" d="M393.59,118.19c4.16.48,5.92,2.91,5.91,7-.04,16.78.01,33.57-.03,50.35-.01,5-1.99,6.87-7.07,6.93-4.13.05-8.26.06-12.38,0-4.46-.08-6.53-1.83-6.56-6.14-.1-17.33-.06-34.67-.01-52,0-3.55,1.96-5.58,5.48-6.08,2.29-.11,4.49-.17,6.77-1.04,2.56-.97,5.08,1.78,7.89.99Z"/>
  <path class="cls-12" d="M279.61,347.96c-1.38-1.28-3.11-.94-4.73-.94-49.9-.01-99.8-.01-149.7,0-1.62,0-3.35-.34-4.72.95-1.14-1.17-1.56-2.63-1.65-4.21-.14-3.54,1.53-4.67,5.05-4.67,50.79.09,101.57.09,152.36,0,3.5,0,5.21,1.09,5.05,4.66-.07,1.59-.51,3.04-1.65,4.22Z"/>
  <path class="cls-26" d="M281.26,343.75c-1.42-3.2-4.04-3.42-7.18-3.42-49.36.09-98.72.09-148.09,0-3.15,0-5.76.23-7.18,3.43-1.61-1.34.6-4.71-2.27-5.06-3.75-.46-7.62-.66-11.36.19-1.26.29-.92,1.8-.98,2.85-.1,1.76-.14,3.53-.21,5.3-16.26,0-32.52.08-48.77-.09-3.7-.04-5.07.93-4.99,4.84.2,10.32-.03,20.66-.09,30.99-.84-1.54-.57-3.23-.58-4.86-.05-11.71-.2-23.42-.03-35.12.05-3.52-1.13-4.47-4.5-4.4-4.38.1-8.8.6-13.16-.37,7.3-.04,14.6-.11,21.9-.11,74.7,0,149.4,0,224.1,0,6.06,0,12.13-.02,18.19-.04.21.23.27.45.19.66-.08.21-.16.31-.23.31-2.42-.12-4.86-.07-7.25-.4-4.26-.59-7.21.4-7.49,5.31Z"/>
  <path class="cls-26" d="M296,338.84c.01-.32.03-.65.04-.97,22.28-.02,44.55-.05,66.83-.05,1.78,0,3.57.13,5.35.21-4.36.97-8.78.47-13.16.37-3.36-.07-4.55.87-4.5,4.39.17,11.84.02,23.69-.03,35.53,0,1.5.2,3.04-.58,4.45-.06-10.33-.29-20.66-.08-30.98.08-3.93-1.31-4.88-5-4.84-16.26.17-32.51.08-48.77.09-.03-2.73-.07-5.46-.1-8.19Z"/>
  <path class="cls-21" d="M21.14,118.24c-4.9-.02-9.79-.03-14.67-.05,3.22.13,4.63-1.14,4.31-4.59-.33-3.52-.11-7.1-.06-10.66.08-5.35,1.57-6.86,6.82-6.91,5.61-.06,11.21-.04,16.82-.05,0,1.8,0,3.59,0,5.39-4.5,0-9.02.21-13.51-.08-3.73-.24-4.88,1.25-4.54,4.74.22,2.3.33,4.68-.02,6.95-.61,4,1.15,5.42,4.84,5.26Z"/>
  <rect class="cls-7" x="50.5" y="99.78" width="297" height="105" rx="16.29" ry="16.29"/>
  <path class="cls-21" d="M393.59,118.19c-4.9.02-9.79.03-14.67.05,4.17.27,4.97-1.85,4.89-5.66-.25-11.21-.08-11.22-11.14-11.22-2.32,0-4.64,0-6.96.01,0-1.8,0-3.59,0-5.39,5.65.01,11.31-.01,16.96.05,5.04.06,6.58,1.62,6.67,6.75.06,3.58.27,7.19-.05,10.75-.31,3.44,1.01,4.82,4.3,4.66Z"/>
  <path class="cls-3" d="M265.72,204.34c-39.53.48-79.07.49-118.6,0-3.81-1.42-5.93-3.45-7.34-5.92-17.42-30.38-36.19-60.51-53.43-90.92-1.39-2.45-5.39-5.59,1.99-7.48,38.6,0,77.19,0,115.76,0,5.58.36,7.52,2.84,9,5.37,17.98,30.8,35.93,61.61,53.79,92.43,1.28,2.22,2.3,4.53-1.16,6.52Z"/>
  <path class="cls-22" d="M199.93,89.64c-12.95,0-25.9.02-38.85-.01-6.27-.02-9.01-2.8-9.04-9.12-.03-7.02-.04-14.05,0-21.07.03-4.99,1.83-7.37,6.67-8.52,15.18-3.62,30.6-5.58,46.18-5,12.07.45,24.1,1.85,35.87,4.85,5.61,1.43,7.25,3.48,7.27,9.3.02,6.89.04,13.77,0,20.66-.04,6.04-2.84,8.88-8.84,8.9-13.09.04-26.17.01-39.26.01Z"/>
  <path class="cls-7" d="M86.12,100.58c20.33,34.59,40.66,69.17,61,103.76-24.35.05-48.71.28-73.06.09-13.27-.1-22.89-5.75-22.96-13.46-.25-25.9-.22-51.81.02-77.71.06-6.77,6.91-11.05,19.01-12.94,5.35-.35,10.71-.82,15.99.25Z"/>
  <path class="cls-7" d="M328.54,100.4c11.89,2.02,18.67,6.31,18.75,13.17.28,25.76.3,51.52-.04,77.27-.08,5.85-4.96,10.49-15.4,12.54-6.9-.32-7.51-3.74-9.11-6.4-11.83-19.63-23.03-39.38-34.54-59.07-6.07-10.4-12.37-20.75-18.03-31.23-1.24-2.29-4.2-5.2,2.59-6.66,18.6.23,37.21-.5,55.78.38Z"/>
  <path class="cls-3" d="M270.88,100.59c18.85,32.47,37.68,64.94,56.6,97.39,1.09,1.87,2.9,3.6,4.37,5.4-11.43,2.37-23.16,1.05-34.8.96-5.33-1.71-6.76-4.82-8.5-7.81-15.81-27.27-31.71-54.53-47.54-81.8-1.74-2.99-4.32-5.83-5.45-8.93-.83-2.28-1.78-4.72,3.64-5.77,10.56.3,21.17-.73,31.67.56Z"/>
  <path class="cls-7" d="M237.57,100.61c.11,3.07,2.5,5.76,4.16,8.6,18.51,31.7,36.9,63.41,55.33,95.13-10.45,0-20.89,0-31.34,0-.93-2.09-1.63-4.21-2.81-6.25-18.81-32.51-37.68-65.01-56.54-97.51,10.4-.91,20.81-.97,31.2.03Z"/>
  <path class="cls-23" d="M282.87,27.28c-5.11-.08-9.12-4.1-9.16-9.15-.03-5.16,4.27-9.37,9.48-9.3,5.03.07,9.14,4.22,9.14,9.22,0,5.32-4.1,9.32-9.46,9.23Z"/>
  <path class="cls-20" d="M312.23,14.83c5.1-.03,9.32,3.98,9.45,8.99.13,5.23-4.02,9.4-9.36,9.41-5.39,0-9.04-3.65-9.07-9.09-.03-5.17,3.93-9.28,8.98-9.31Z"/>
  <path class="cls-23" d="M87.79,14.79c5.04.05,9.18,4.19,9.19,9.19.02,5.33-4.07,9.36-9.43,9.29-5.12-.06-9.15-4.05-9.21-9.12-.06-5.17,4.23-9.41,9.45-9.36Z"/>
  <path class="cls-20" d="M116.9,26.21c-5.23-.05-9.13-3.98-9.14-9.22,0-5,4.24-9.23,9.26-9.22,5.11.01,9.31,4.1,9.38,9.12.07,5.25-4.12,9.37-9.5,9.32Z"/>
  <text class="cls-8" transform="translate(437.5 154.75)"><tspan x="0" y="0">움직이는</tspan></text>
  <text class="cls-9" transform="translate(.5 506.38)"><tspan x="0" y="0">M</tspan><tspan class="cls-15" x="79.42" y="0">O</tspan><tspan x="143.91" y="0">VING SCHOOL </tspan><tspan class="cls-13" x="777.57" y="0">Z</tspan><tspan x="830.73" y="0">ONE</tspan></text>
  <text class="cls-11" transform="translate(437.5 371.64)"><tspan x="0" y="0">스쿨존</tspan></text>
  <path class="cls-23" d="M34.5,226.78h18.83c5.06,0,9.17,4.11,9.17,9.17v46.67c0,5.06-4.11,9.17-9.17,9.17h-18.83v-65h0Z"/>
  <path class="cls-23" d="M337.5,226.78h18.83c5.06,0,9.17,4.11,9.17,9.17v46.67c0,5.06-4.11,9.17-9.17,9.17h-18.83v-65h0Z" transform="translate(703 518.56) rotate(-180)"/>
  <rect class="cls-10" x="142" y="259.28" width="120" height="30" rx="4.39" ry="4.39"/>
  <path class="cls-16" d="M48.79,255.78c5.04.07,9.18,5.77,9.19,12.68.02,7.35-4.07,12.91-9.43,12.82-5.12-.08-9.15-5.59-9.21-12.58-.06-7.12,4.23-12.98,9.45-12.91Z"/>
  <path class="cls-16" d="M351.79,255.78c5.04.07,9.18,5.77,9.19,12.68.02,7.35-4.07,12.91-9.43,12.82-5.12-.08-9.15-5.59-9.21-12.58-.06-7.12,4.23-12.98,9.45-12.91Z"/>
  <g>
    <rect class="cls-24" x="193.5" y="99.78" width="13" height="13" rx="1.04" ry="1.04"/>
    <circle class="cls-14" cx="200.15" cy="106.43" r="4.53"/>
    <circle class="cls-4" cx="200.15" cy="106.43" r="3.93"/>
    <circle class="cls-18" cx="200.15" cy="106.43" r="2.12"/>
  </g>
  <rect class="cls-19" x="61.02" y="120.78" width="277.65" height="71" rx="5.44" ry="5.44"/>
  <g>
    <text class="cls-6" transform="translate(160.23 166.16)"><tspan x="0" y="0">서행하세요</tspan></text>
    <g>
      <circle class="cls-25" cx="120.67" cy="155.07" r="29.3"/>
      <circle class="cls-5" cx="120.67" cy="155.07" r="26.93"/>
      <circle class="cls-25" cx="120.67" cy="155.07" r="26.09"/>
      <circle class="cls-5" cx="120.67" cy="155.07" r="25.3"/>
      <g>
        <g>
          <path d="M103.15,161h3c.16,2.27,2.44,3.69,5.27,3.69,3.13,0,5.44-1.71,5.44-4.19,0-2.6-2.08-4.45-5.8-4.45h-1.94v-2.6h1.94c2.9,0,4.91-1.62,4.91-4.09s-1.75-3.99-4.45-3.99c-2.54,0-4.88,1.42-5.01,3.76h-2.87c.16-3.79,3.66-6.33,7.91-6.33,4.55,0,7.32,2.97,7.28,6.39.03,2.7-1.55,4.71-4.05,5.41v.16c3.1.49,5.01,2.7,4.98,5.74.03,3.92-3.56,6.82-8.31,6.82s-8.14-2.54-8.31-6.33Z"/>
          <path d="M111.46,168.12c-5.18,0-8.92-2.91-9.1-7.09l-.04-.83h4.56l.05.73c.13,1.74,1.97,2.96,4.48,2.96,2.74,0,4.65-1.4,4.65-3.39,0-2.29-1.87-3.66-5.01-3.66h-2.74v-4.19h2.74c2.5,0,4.12-1.29,4.12-3.3s-1.44-3.2-3.66-3.2c-2.01,0-4.11,1.03-4.22,3.01l-.04.75h-4.44l.04-.83c.18-4.11,3.84-7.09,8.7-7.09,2.45,0,4.62.82,6.1,2.32,1.29,1.3,1.99,3.03,1.97,4.87.03,2.29-1,4.21-2.79,5.35,2.33,1.05,3.74,3.23,3.71,5.96.02,1.86-.69,3.57-2.04,4.93-1.68,1.7-4.26,2.67-7.06,2.67ZM104.04,161.8c.57,2.87,3.44,4.74,7.42,4.74,2.38,0,4.54-.8,5.93-2.2,1.05-1.06,1.6-2.38,1.58-3.82.03-2.68-1.58-4.52-4.31-4.96l-.67-.11v-1.44l.58-.16c2.2-.61,3.5-2.34,3.47-4.63.01-1.43-.52-2.76-1.51-3.76-1.18-1.19-2.95-1.85-4.98-1.85-3.64,0-6.45,1.95-7.02,4.74h1.29c.53-2.22,2.79-3.76,5.69-3.76,3.14,0,5.24,1.92,5.24,4.78s-2.35,4.88-5.7,4.88h-1.15v1.02h1.15c4.01,0,6.59,2.06,6.59,5.24,0,2.88-2.62,4.98-6.23,4.98-3.05,0-5.38-1.48-5.95-3.69h-1.44Z"/>
        </g>
        <g>
          <path d="M121.54,155.07c0-7.75,3.1-12.26,8.34-12.26s8.34,4.52,8.34,12.26-3.07,12.26-8.34,12.26-8.34-4.45-8.34-12.26ZM135.32,155.07c0-6.16-2.01-9.69-5.44-9.69s-5.47,3.53-5.47,9.69,2.01,9.62,5.47,9.62,5.44-3.46,5.44-9.62Z"/>
          <path d="M129.88,168.12c-5.8,0-9.13-4.76-9.13-13.05s3.41-13.05,9.13-13.05,9.13,4.88,9.13,13.05-3.33,13.05-9.13,13.05ZM129.88,143.6c-4.8,0-7.55,4.18-7.55,11.47,0,4.28.98,11.47,7.55,11.47,4.8,0,7.55-4.18,7.55-11.47s-2.75-11.47-7.55-11.47ZM129.88,165.49c-3.98,0-6.26-3.8-6.26-10.42s2.34-10.48,6.26-10.48,6.23,3.82,6.23,10.48-2.27,10.42-6.23,10.42ZM129.88,146.17c-2.97,0-4.68,3.24-4.68,8.9s1.71,8.83,4.68,8.83,4.65-3.22,4.65-8.83-1.69-8.9-4.65-8.9Z"/>
        </g>
      </g>
    </g>
  </g>
</svg>